# xmcd CD database file
#
# Track frame offsets:
#	150
#	19905
#	40907
#	59575
#	79996
#	102280
#	129093
#	151923
#	167659
#	188496
#	203091
#	220400
#	240433
#	259641
#	278477
#	296914
#
# Disc length: 4258 seconds
#
# Revision: 0
# Processed by: cddbd v1.5.2PL0 Copyright (c) Steve Scherf et al.
# Submitted via: CDex 1.70beta2
#
DISCID=db10a010
DTITLE=Various Artist - Salsa Nueva 2009 CD 2
DYEAR=2009
DGENRE=Salsa
TTITLE0=Pedro Arroyo - Tu Ausencia
TTITLE1=Maelo Ruiz - Aroma De Mujer
TTITLE2=Tito Nieves - Más Que Tu Amigo
TTITLE3=Grupo Galé - Regresa Pronto
TTITLE4=Andy Montañez - Celos
TTITLE5=Marc Anthony and Arjona - Historia De Taxi
TTITLE6=Tito Rojas - Te Reto
TTITLE7=Armando Davalillo - Te Quedarás
TTITLE8=Grande Madrid - Nada
TTITLE9=Salserin - Como Duele El Frío
TTITLE10=Servando Y Florentino - Una Canción Que Te Enamore
TTITLE11=Johnny Rivera - Dicen
TTITLE12=Puerto Rican Power - Esa Mujer
TTITLE13=Guayacán - Ay Amor
TTITLE14=Andy Montañez Ft. Juan García - Celos
TTITLE15=Pedro Conga - No Me Lo Pongas Dura
EXTD=YEAR: 2009
EXTT0=
EXTT1=
EXTT2=
EXTT3=
EXTT4=
EXTT5=
EXTT6=
EXTT7=
EXTT8=
EXTT9=
EXTT10=
EXTT11=
EXTT12=
EXTT13=
EXTT14=
EXTT15=
PLAYORDER=
